<svg width="828" height="777" viewBox="0 0 828 777" fill="none" xmlns="http://www.w3.org/2000/svg">
<path d="M196.039 622.937C201.565 454.945 323.359 359.289 383.565 332.46L410.395 329.782C408.234 342.17 403.096 367.312 399.836 368.773C283.749 414.738 247.891 555.951 244.473 620.811L196.039 622.937Z" fill="url(#paint0_linear)"/>
<path d="M189.039 386.937C194.565 218.945 316.359 123.289 376.565 96.46L403.395 93.7817C401.234 106.17 396.096 131.312 392.836 132.773C276.749 178.738 240.891 319.951 237.473 384.811L189.039 386.937Z" fill="url(#paint1_linear)"/>
<path d="M429.916 647.299C435.442 479.307 557.236 383.651 617.442 356.822L644.272 354.144C642.111 366.532 636.973 391.674 633.713 393.135C517.626 439.1 481.768 580.313 478.35 645.174L429.916 647.299Z" fill="url(#paint2_linear)"/>
<rect x="698.356" y="177.712" width="29.2346" height="68.2142" rx="10" transform="rotate(89.9881 698.356 177.712)" fill="#2D2D2D"/>
<rect x="637.599" y="364.634" width="29.2346" height="68.2142" rx="10" transform="rotate(89.9881 637.599 364.634)" fill="#2D2D2D"/>
<rect x="500.398" y="99.127" width="43.0399" height="74.7108" rx="10" transform="rotate(107.059 500.398 99.127)" fill="#2D2D2D"/>
<rect x="430.119" y="328.148" width="43.0399" height="74.7108" rx="10" transform="rotate(107.059 430.119 328.148)" fill="#2D2D2D"/>
<path d="M709.027 218.229C713.89 220.141 716.461 225.474 714.928 230.469L691.447 306.989C689.827 312.269 684.233 315.236 678.953 313.616L368.128 218.234C362.848 216.614 359.881 211.02 361.501 205.74L392.326 105.291C394.034 99.7224 400.123 96.7871 405.544 98.9185L709.027 218.229Z" fill="#B75353"/>
<path d="M657.733 385.386C662.831 386.531 667.951 383.558 669.484 378.563L692.965 302.043C694.585 296.763 691.619 291.169 686.339 289.549L375.513 194.167C370.233 192.547 364.64 195.514 363.019 200.794L332.195 301.243C330.486 306.812 333.88 312.657 339.564 313.933L657.733 385.386Z" fill="#B75353"/>
<path d="M712.016 209.511L699.872 217.252C713.61 224.525 700.148 278.638 691.699 304.785L709.167 310.145L728.42 229.41C726.787 217.016 716.804 210.98 712.016 209.511Z" fill="#515151"/>
<path d="M655.079 395.057L649.367 381.836C664.82 383.52 684.027 331.17 691.699 304.785L709.167 310.145L679.821 387.784C671.517 397.128 659.866 396.526 655.079 395.057Z" fill="#515151"/>
<path d="M586.252 209.45L625.611 209.519C639.005 256.896 622.539 311.878 586.056 343.953L551.968 321.115C569.04 304.397 580.301 287.947 585.944 269.921C591.586 251.899 591.598 232.348 586.252 209.45Z" fill="#3F3F3F" stroke="#DDB1B1"/>
<path d="M582.284 204.952L621.715 204.82L483.484 154.247L582.284 204.952Z" fill="#3F3F3F" stroke="#DDB1B1"/>
<path d="M546.073 322.957L578.643 345.183L435.837 309.516L546.073 322.957Z" fill="#3F3F3F" stroke="#DDB1B1"/>
<path d="M495.904 168.072L512.224 177.916L472.559 307.175L453.979 304.697L495.904 168.072Z" fill="#3F3F3F" stroke="#DDB1B1"/>
<path d="M473.434 155.222L489.718 165.444L447.014 304.605L428.296 302.342C438.765 242.788 448.535 210.327 473.434 155.222Z" fill="#3F3F3F" stroke="#DDB1B1"/>
<path d="M500.596 123.397C507.723 137.816 571.375 161.256 618.048 179.401C654.844 171.325 695.683 205.065 701.993 220.026L429.396 121.51L401.466 97.6494C432.292 81.6252 491.686 105.373 500.596 123.397Z" fill="#B75353"/>
<path d="M431.328 346.357C445.316 338.418 511.159 354.715 559.976 365.873C585.909 393.198 638.644 388.173 652.26 379.327L371.325 307.982L334.819 312.07C351.35 342.626 413.842 356.281 431.328 346.357Z" fill="#B75353"/>
<path d="M424.21 109.346L362.151 311.583L308.842 305.373L376.011 86.4857L424.21 109.346Z" fill="#515151"/>
<path d="M368.927 74.9678C385.542 65.1159 412.467 94.5579 423.853 110.51C408.603 102.999 377.791 87.8815 376.549 87.5003C375.307 87.1191 370.95 78.9865 368.927 74.9678Z" fill="#313131"/>
<path d="M297.757 309.662C305.986 327.137 344.791 317.866 363.165 311.046C346.326 308.71 312.339 303.943 311.096 303.562C309.854 303.181 301.686 307.47 297.757 309.662Z" fill="#313131"/>
<path d="M451.477 140.84L467.639 151.402C441.939 207.284 431.641 240.112 421.769 300.855L403.001 298.828C409.542 233.759 420.639 199.16 451.477 140.84Z" fill="#3F3F3F" stroke="#DDB1B1"/>
<path d="M698.023 220.507C702.614 227.692 700.841 236.237 699.381 239.611C689.862 244.335 671.636 223.452 673.599 214.286C675.563 205.12 692.285 211.526 698.023 220.507Z" fill="#FFFBDB"/>
<path d="M651.024 373.371C658.854 369.998 662.18 361.929 662.864 358.316C657.633 349.066 630.831 356.131 627.315 364.821C623.798 373.511 641.235 377.588 651.024 373.371Z" fill="#FFFBDB"/>
<path d="M668.296 346.447C684.841 321.146 696.578 283.347 696.526 254.45L689.155 257.71C684.383 290.787 679.067 308.541 664.26 338.838L668.296 346.447Z" fill="#343434" stroke="black"/>
<defs>
<linearGradient id="paint0_linear" x1="411.354" y1="332.912" x2="240.054" y2="536.474" gradientUnits="userSpaceOnUse">
<stop/>
<stop offset="1" stop-opacity="0"/>
</linearGradient>
<linearGradient id="paint1_linear" x1="404.354" y1="96.9117" x2="233.054" y2="300.474" gradientUnits="userSpaceOnUse">
<stop/>
<stop offset="1" stop-opacity="0"/>
</linearGradient>
<linearGradient id="paint2_linear" x1="645.231" y1="357.274" x2="473.931" y2="560.836" gradientUnits="userSpaceOnUse">
<stop/>
<stop offset="1" stop-opacity="0"/>
</linearGradient>
</defs>
</svg>
