<svg width="1859" height="869" viewBox="0 0 1859 869" fill="none" xmlns="http://www.w3.org/2000/svg">
<path fill-rule="evenodd" clip-rule="evenodd" d="M632.178 170.042L869.693 334.656L880.503 425.696L673.618 629.111C587.81 728.077 444.888 768.965 311.879 721.096C140.132 659.287 49.9499 472.901 110.45 304.792C170.951 136.683 359.224 50.5109 530.97 112.321C549.136 118.858 566.39 126.79 582.649 135.946L582.609 135.687L584.484 136.987C601.518 146.721 617.448 157.805 632.178 170.042Z" fill="#EAEAEA" fill-opacity="0.3"/>
<path d="M1073.09 362.383H861.626C874.086 503.006 960.596 494.462 993.705 500.514C1020.19 505.356 1057.67 486.155 1073.09 475.949V362.383Z" fill="white"/>
<path d="M887.259 362.383C925.589 362.027 1003.32 361.529 1007.59 362.383C1013.88 398.459 1020.76 473.173 997.977 483.426C969.497 496.242 942.44 483.426 915.027 458.861C893.097 439.21 887.377 386.354 887.259 362.383Z" fill="#619BD1"/>
<path d="M1073.09 362.739H861.626C874.086 222.116 960.596 230.66 993.705 224.608C1020.19 219.766 1057.67 238.967 1073.09 249.173V362.739Z" fill="white"/>
<path d="M887.259 363.451C925.589 363.807 1003.32 364.305 1007.59 363.451C1013.88 327.375 1020.76 252.661 997.977 242.408C969.497 229.592 942.44 242.408 915.027 266.973C893.097 286.624 887.377 339.48 887.259 363.451Z" fill="#619BD1"/>
<path d="M1062.06 476.661L1014 360.959L1062.06 247.393L1262.85 272.669C1262.85 272.669 1367.29 313.77 1364.31 368.079C1361.47 419.803 1262.85 453.521 1262.85 453.521L1062.06 476.661Z" fill="#4F608C"/>
<path d="M1849.9 388.728L1315.18 425.396V363.095L1849.9 363.095V388.728Z" fill="white"/>
<path d="M1849.9 340.667L1315.18 303.998V366.299L1849.9 366.299V340.667Z" fill="white"/>
<rect x="1097.3" y="488.766" width="78.3217" height="169.46" rx="39.1608" transform="rotate(-90 1097.3 488.766)" fill="#6478AC"/>
<rect x="1097.3" y="315.746" width="78.3217" height="169.46" rx="39.1608" transform="rotate(-90 1097.3 315.746)" fill="#6478AC"/>
<rect x="1107.27" y="476.661" width="56.2492" height="25.6325" rx="12.8163" transform="rotate(-90 1107.27 476.661)" fill="#383838"/>
<rect x="1108.7" y="303.642" width="56.2492" height="25.6325" rx="12.8163" transform="rotate(-90 1108.7 303.642)" fill="#383838"/>
<path d="M1771.23 526.503L1736.69 361.315L1771.23 196.127H1849.55L1819.29 361.315L1849.55 526.503H1771.23Z" fill="#6478AC"/>
<ellipse cx="1823.91" cy="361.671" rx="28.1246" ry="108.582" transform="rotate(-90 1823.91 361.671)" fill="#4F608C"/>
<ellipse cx="1181.68" cy="364.519" rx="35.2448" ry="32.3967" transform="rotate(-90 1181.68 364.519)" fill="#3B4767"/>
</svg>
