<svg width="1502" height="1502" viewBox="0 0 1502 1502" fill="none" xmlns="http://www.w3.org/2000/svg">
<mask id="path-1-inside-1" fill="white">
<path d="M1502 751C1502 1165.77 1165.77 1502 751 1502C336.234 1502 0 1165.77 0 751C0 336.234 336.234 0 751 0C1165.77 0 1502 336.234 1502 751ZM385.422 751C385.422 952.903 549.097 1116.58 751 1116.58C952.903 1116.58 1116.58 952.903 1116.58 751C1116.58 549.097 952.903 385.422 751 385.422C549.097 385.422 385.422 549.097 385.422 751Z"/>
</mask>
<path d="M1502 751C1502 1165.77 1165.77 1502 751 1502C336.234 1502 0 1165.77 0 751C0 336.234 336.234 0 751 0C1165.77 0 1502 336.234 1502 751ZM385.422 751C385.422 952.903 549.097 1116.58 751 1116.58C952.903 1116.58 1116.58 952.903 1116.58 751C1116.58 549.097 952.903 385.422 751 385.422C549.097 385.422 385.422 549.097 385.422 751Z" fill="#C4C4C4" stroke="#979797" stroke-width="60" mask="url(#path-1-inside-1)"/>
</svg>
